<svg xmlns="http://www.w3.org/2000/svg" viewBox="0 0 512 512" fill="none">
  <!-- MOBIUS · interlocking ribbon mark -->
  <!-- Two oblique ribbon loops crossing at center, mimicking the Krea hero render -->
  <g fill="currentColor">
    <!-- Left ribbon -->
    <path d="
      M 256,80
      C 380,80 460,170 460,256
      C 460,330 405,400 320,418
      C 290,422 264,415 245,395
      C 220,368 215,330 230,300
      C 245,275 280,260 312,265
      C 340,270 360,290 360,310
      C 360,330 345,340 325,338
      C 308,335 295,322 298,308
      C 300,298 308,294 314,298
      L 314,298
      C 310,302 312,308 318,308
      C 326,308 330,300 322,290
      C 310,278 280,278 262,300
      C 240,328 248,370 290,388
      C 350,410 420,360 430,290
      C 440,200 360,130 256,130
      C 152,130 72,200 82,290
      C 88,355 130,395 180,400
      C 200,400 210,395 215,385
      C 165,360 145,310 160,260
      C 175,210 220,180 256,180
      Z
    " />
  </g>
</svg>
